<svg width="33" height="32" viewBox="0 0 33 32" fill="none" xmlns="http://www.w3.org/2000/svg">
<path d="M16.3293 31.832C24.8883 31.832 31.8266 25.0812 31.8266 16.7537C31.8266 8.42611 24.8883 1.67529 16.3293 1.67529C7.77041 1.67529 0.832031 8.42611 0.832031 16.7537C0.832031 25.0812 7.77041 31.832 16.3293 31.832Z" fill="black"/>
<path d="M16.335 0C7.31461 0 0 7.29683 0 16.2982C0 23.4991 4.68047 29.6085 11.1709 31.7636C11.9873 31.9145 12.2871 31.41 12.2871 30.9795C12.2871 30.5908 12.2718 29.307 12.2649 27.9453C7.72043 28.931 6.76151 26.0222 6.76151 26.0222C6.0184 24.1383 4.9477 23.6373 4.9477 23.6373C3.46568 22.6258 5.05949 22.6466 5.05949 22.6466C6.69975 22.7616 7.56346 24.3261 7.56346 24.3261C9.02046 26.8178 11.3849 26.0974 12.3171 25.681C12.4637 24.6276 12.8869 23.9085 13.3542 23.5015C9.72592 23.0895 5.91184 21.692 5.91184 15.447C5.91184 13.6676 6.54993 12.2136 7.59485 11.0722C7.42524 10.6617 6.86616 9.00418 7.7531 6.75912C7.7531 6.75912 9.12485 6.32111 12.2465 8.4298C13.5494 8.0687 14.9469 7.88763 16.335 7.88139C17.7232 7.88763 19.1218 8.06857 20.4272 8.4298C23.545 6.32123 24.9148 6.75925 24.9148 6.75925C25.8039 9.00404 25.2446 10.6619 25.075 11.0722C26.1224 12.2136 26.7561 13.6676 26.7561 15.447C26.7561 21.7068 22.9347 23.0852 19.2973 23.4887C19.8832 23.9945 20.4052 24.9864 20.4052 26.507C20.4052 28.6875 20.3864 30.4426 20.3864 30.9795C20.3864 31.4133 20.6804 31.9214 21.5084 31.7612C27.9953 29.604 32.6699 23.4969 32.6699 16.2983C32.6699 7.29682 25.3563 0 16.335 0ZM6.11807 23.2171C6.08209 23.2981 5.95434 23.3224 5.83809 23.2668C5.71952 23.2137 5.65304 23.1033 5.69133 23.022C5.72655 22.9387 5.85455 22.9153 5.97272 22.9712C6.0914 23.0244 6.15904 23.1358 6.11807 23.2171ZM6.92154 23.9324C6.8437 24.0045 6.69133 23.971 6.58796 23.8573C6.48114 23.7436 6.46111 23.5916 6.5401 23.5186C6.6205 23.4464 6.76815 23.4802 6.87522 23.5937C6.98217 23.7088 7.00284 23.8597 6.92154 23.9324ZM7.47285 24.8476C7.37267 24.9171 7.20907 24.852 7.10787 24.7071C7.00781 24.5622 7.00781 24.3885 7.11004 24.3188C7.21149 24.2491 7.37267 24.3118 7.47515 24.4557C7.57494 24.6029 7.57494 24.7767 7.47273 24.8478L7.47285 24.8476ZM8.40496 25.9078C8.31551 26.0063 8.12471 25.9798 7.98511 25.8453C7.8423 25.7139 7.80261 25.5276 7.89245 25.4289C7.98306 25.3301 8.17487 25.3579 8.31551 25.4914C8.45716 25.6225 8.50055 25.8103 8.40496 25.9078ZM9.60992 26.2655C9.57036 26.3932 9.38659 26.4513 9.20167 26.3971C9.01688 26.3411 8.89603 26.1916 8.9333 26.0627C8.97171 25.934 9.15625 25.8737 9.34256 25.9317C9.5271 25.9872 9.64833 26.1357 9.60992 26.2656V26.2655ZM10.981 26.4174C10.9856 26.5517 10.8288 26.6631 10.6346 26.6656C10.4393 26.6701 10.2812 26.5613 10.279 26.4289C10.279 26.2933 10.4324 26.1829 10.6278 26.1796C10.822 26.1757 10.981 26.2837 10.981 26.4174ZM12.328 26.3658C12.3512 26.497 12.2164 26.6317 12.0234 26.6675C11.8339 26.7021 11.6583 26.6211 11.6342 26.4911C11.6107 26.3567 11.7481 26.222 11.9374 26.1872C12.1306 26.1537 12.3034 26.2325 12.328 26.3658Z" fill="#E4E4E4"/>
</svg>
