<svg width="32" height="25" viewBox="0 0 32 25" fill="none" xmlns="http://www.w3.org/2000/svg">
<path d="M7.84617 24.0639V12.0992L4.11622 8.7046L0.771484 6.8208V21.9525C0.771484 23.1208 1.72297 24.0639 2.89393 24.0639H7.84617Z" fill="#4285F4"/>
<path d="M24.8242 24.0638H29.7764C30.9509 24.0638 31.8988 23.1172 31.8988 21.9524V6.8208L28.1105 8.97847L24.8242 12.0991V24.0638Z" fill="#34A853"/>
<path d="M7.84347 12.0973L7.33594 7.42239L7.84347 2.948L16.3331 9.28224L24.8226 2.948L25.3904 7.18083L24.8226 12.0973L16.3331 18.4316L7.84347 12.0973Z" fill="#EA4335"/>
<path d="M24.8242 2.94938V12.0988L31.8988 6.82028V4.00504C31.8988 1.394 28.9028 -0.0944803 26.8052 1.47142L24.8242 2.94938Z" fill="#FBBC04"/>
<path d="M0.771484 6.82034L4.02526 9.24812L7.84617 12.0988V2.94943L5.86512 1.47147C3.76396 -0.0945477 0.771484 1.39406 0.771484 4.00498V6.82021V6.82034Z" fill="#C5221F"/>
</svg>
