<svg width="31" height="31" viewBox="0 0 31 31" fill="none" xmlns="http://www.w3.org/2000/svg">
<g clip-path="url(#clip0_158_91)">
<path fill-rule="evenodd" clip-rule="evenodd" d="M30.3359 3.81421C30.3359 1.7445 28.6556 0.064209 26.5859 0.064209H4.08594C2.01623 0.064209 0.335938 1.7445 0.335938 3.81421V26.3142C0.335938 28.3839 2.01623 30.0642 4.08594 30.0642H26.5859C28.6556 30.0642 30.3359 28.3839 30.3359 26.3142V3.81421Z" fill="#2867B2"/>
<path d="M8.93906 10.533H3.91406V25.6479H8.93906V10.533Z" fill="white"/>
<path d="M6.45969 3.24463C4.74049 3.24463 3.61719 4.3749 3.61719 5.85633C3.61719 7.30664 4.70633 8.46809 6.39318 8.46809H6.42564C8.17777 8.46809 9.26838 7.30664 9.26838 5.85633C9.23586 4.3749 8.17789 3.24463 6.45969 3.24463V3.24463Z" fill="white"/>
<path d="M21.2704 10.1775C18.6049 10.1775 17.411 11.6433 16.7425 12.6729V10.5329H11.7188C11.7854 11.9507 11.7188 25.6478 11.7188 25.6478H16.7424V17.2066C16.7424 16.7548 16.7749 16.3031 16.908 15.9801C17.2706 15.0778 18.0978 14.1431 19.4858 14.1431C21.3029 14.1431 22.0308 15.5297 22.0308 17.5607V25.6478H27.0547V16.98C27.0547 12.3373 24.5759 10.1775 21.2704 10.1775V10.1775Z" fill="white"/>
</g>
<defs>
<clipPath id="clip0_158_91">
<rect width="30" height="30" fill="white" transform="translate(0.335938 0.064209)"/>
</clipPath>
</defs>
</svg>
