<svg width="200" height="200" viewBox="0 0 127 138" fill="none" xmlns="http://www.w3.org/2000/svg">
<g clip-path="url(#clip0_805_6)">
<path d="M64.7043 138.359C57.628 131.503 50.6667 124.651 43.7173 117.788C34.1593 108.348 24.6175 98.8926 15.0521 89.4606C12.7601 87.2006 10.4026 85.0065 8.07812 82.7849C9.43272 80.923 10.8221 79.6961 12.1669 78.4354C13.3215 77.3529 13.4316 76.4455 12.1055 75.3545C10.9553 74.4083 10.0158 73.2126 8.92671 72.1867C8.23912 71.539 8.24337 71.0541 8.93596 70.4137C10.1228 69.3162 11.2211 68.1241 12.4027 67.0207C13.3338 66.1513 13.4324 65.3688 12.4574 64.4582C11.3178 63.3939 10.2666 62.2355 9.12112 61.1781C8.30092 60.4209 8.17682 59.8652 9.06528 58.9862C14.601 53.5098 20.0824 47.9788 25.578 42.4621C35.9462 32.0541 46.3116 21.6433 56.6788 11.2343C58.5826 9.32282 60.4735 7.39824 62.3999 5.50953C64.0988 3.84379 64.4915 3.88466 66.1989 5.58964C70.9512 10.3352 75.7041 15.0802 80.4779 19.8042C93.5127 32.7027 106.55 45.5988 119.617 58.4647C120.575 59.4084 120.576 60.1207 119.674 61.0058C118.52 62.1376 117.424 63.3308 116.243 64.4327C115.465 65.1579 115.599 65.7044 116.303 66.3627C117.442 67.4278 118.492 68.5895 119.655 69.6249C120.653 70.5125 120.674 71.3089 119.689 72.1576C118.194 73.4454 116.688 74.7205 115.219 75.9737C116.745 78.2533 118.34 79.5368 119.779 80.9465C120.738 81.8854 120.665 82.4909 119.732 83.4238C103.379 99.7831 87.0478 116.165 70.7412 132.571C68.9282 134.395 66.9388 136.058 65.3451 138.245C65.1452 138.359 64.9849 138.359 64.7043 138.359ZM83.9111 64.8575C84.383 64.7785 84.8573 64.7116 85.3263 64.6183C87.9833 64.0901 90.2963 61.4389 90.4101 58.7996C90.5104 56.4751 88.2995 53.6057 85.8709 52.9081C82.0411 51.8081 78.7525 53.8813 77.7854 58.1445C77.5727 59.0825 77.1966 59.5774 76.3666 59.9871C73.0349 61.6314 69.7922 63.4652 66.4077 64.9889C64.1088 66.0238 63.5195 62.9493 61.6705 62.6174C60.9651 62.4908 60.9347 61.7977 61.0235 61.1447C61.4974 57.6587 61.9702 54.1723 62.3979 50.6805C62.5656 49.3112 63.075 48.4909 64.5726 48.085C66.9168 47.4496 68.6142 44.5854 68.3771 42.1996C68.0966 39.3768 65.9668 36.8831 63.4742 36.459C60.6369 35.9763 57.9011 37.3989 56.6335 40.0162C55.4473 42.4654 56.0235 45.1863 58.2854 47.1367C59.0567 47.8018 59.3663 48.4848 59.2979 49.459C59.0258 53.3339 58.4842 57.1731 57.842 61.0012C57.7094 61.7919 57.2122 62.1429 56.4984 62.2175C54.2369 62.4537 52.5888 63.7341 51.2848 65.4265C50.5496 66.3809 49.9118 66.4094 48.8356 66.0878C44.3037 64.7338 39.7088 63.5859 35.1922 62.1855C33.1935 61.5658 32.1658 62.3575 31.2984 63.8875C31.6557 64.3984 32.1449 64.4669 32.5967 64.601C37.765 66.135 42.9248 67.6993 48.1114 69.1694C49.0411 69.4329 49.6662 69.7342 49.7176 70.7539C49.9232 74.8287 52.1418 77.4129 55.8801 78.7274C57.0053 79.1231 57.3686 79.7512 57.4061 80.8088C57.4993 83.4347 57.6013 86.0451 58.0789 88.6575C58.4721 90.8084 58.3888 92.7561 55.9172 94.2865C53.0117 96.0858 53.1635 100.585 55.7045 103.119C58.0115 105.419 62.2632 105.282 64.4038 102.838C67.1379 99.7155 66.462 95.4711 62.8876 93.3353C62.2821 92.9734 61.5642 92.7703 61.4221 91.8981C60.8551 88.4171 60.9225 84.8818 60.4911 81.3926C60.2651 79.5654 60.6754 78.2621 62.6212 77.6867C63.164 77.5262 63.6706 77.0882 64.0787 76.6669C64.7781 75.9448 65.5344 75.9195 66.3794 76.2701C69.7029 77.6487 73.0083 79.0725 76.3544 80.394C77.5319 80.859 77.9577 81.5334 78.002 82.8027C78.1042 85.7364 79.9362 87.795 82.7017 88.3732C85.5145 88.9614 88.2898 87.6628 89.6641 85.1153C90.758 83.0876 90.1782 79.843 88.3908 78.1574C86.517 76.3904 83.5422 75.359 81.0181 77.2481C79.8261 78.1403 78.7422 78.0069 77.5011 77.4818C74.6296 76.2669 71.7447 75.0811 68.8415 73.9439C67.3538 73.3611 65.9929 72.8279 66.938 70.7931C67.0949 70.4554 67.0026 69.9481 66.8945 69.5549C66.6798 68.7739 66.9622 68.29 67.6414 67.9459C70.8486 66.3212 74.05 64.6852 77.2615 63.0692C78.1568 62.6187 79.1062 62.3402 79.9207 63.19C80.9432 64.2568 82.2447 64.6071 83.9111 64.8575ZM33.4537 37.4616C26.9244 44.0458 20.3497 50.5863 13.8846 57.2324C10.5843 60.6251 10.3425 59.371 13.9218 63.1354C14.8273 64.0878 15.4827 63.8733 16.3094 63.0332C19.5858 59.7038 22.9135 56.4245 26.2102 53.1149C38.4771 40.8 50.7505 28.4915 62.9826 16.1424C63.995 15.1204 64.6169 15.1423 65.6109 16.1304C76.7439 27.1972 87.9135 38.2275 99.0706 49.2703C103.541 53.695 108.001 58.1299 112.476 62.5501C113.107 63.1733 113.779 64.0167 114.715 62.9953C115.716 61.902 116.958 61.0197 117.71 59.7552C117.576 59.1048 117.093 58.8091 116.717 58.4363C108.628 50.437 100.542 42.4355 92.4471 34.443C83.4465 25.5563 74.4275 16.6881 65.4478 7.78052C64.5734 6.91312 64.067 6.8327 63.1354 7.77063C53.3344 17.6381 43.4819 27.455 33.4537 37.4616ZM93.3922 106.859C101.571 98.6517 109.751 90.4449 117.984 82.1839C116.455 80.7214 115.357 79.3014 113.81 78.2301C113.407 78.5766 113.03 78.8623 112.698 79.1934C105.19 86.6906 97.6748 94.1805 90.1863 101.697C82.1492 109.765 74.1299 117.85 66.1264 125.95C65.0745 127.015 64.2032 127.252 63.1802 125.944C62.5935 125.194 61.8701 124.547 61.1888 123.873C51.1687 113.966 41.1444 104.062 31.1229 94.1561C26.2622 89.3514 21.3915 84.5566 16.5586 79.7242C15.6405 78.8062 15.0134 78.5255 13.9201 79.6229C10.997 82.5572 10.9393 82.4994 13.9738 85.4637C14.1452 85.6312 14.2953 85.8203 14.4657 85.989C23.1974 94.6355 31.9249 103.286 40.6645 111.925C48.1574 119.331 55.6957 126.692 63.1331 134.153C64.3361 135.36 64.9868 135.338 66.1492 134.166C75.1415 125.095 84.1932 116.082 93.3922 106.859ZM100.997 54.1131C98.2677 51.4235 95.5349 48.7374 92.8097 46.0437C83.6934 37.0323 74.5717 28.0262 65.4781 18.9921C64.623 18.1426 64.0331 18.0093 63.1219 18.943C59.7317 22.4169 56.2686 25.8203 52.8383 29.2555C42.8889 39.2192 32.9364 49.1801 22.9987 59.1554C20.9025 61.2597 18.8639 63.4209 16.7482 65.6082C17.3084 66.2806 17.685 66.8235 18.1503 67.2761C20.8349 69.8881 20.29 70.2203 23.1645 67.3246C36.3325 54.0592 49.5714 40.8637 62.7271 27.5863C64.0257 26.2756 64.7806 26.4814 65.9298 27.6682C68.9275 30.7639 72.0277 33.7612 75.0887 36.796C83.6815 45.3151 92.2711 53.8372 100.871 62.3492C103.242 64.6962 105.645 67.0117 108.019 69.3278C109.423 68.5339 110.21 67.3663 111.242 66.4744C112.123 65.7131 112.141 65.1218 111.277 64.2854C107.876 60.9905 104.532 57.6362 100.997 54.1131ZM35.9147 87.6728C31.734 83.5497 27.5177 79.4617 23.3844 75.2921C20.2926 72.1732 20.939 72.8236 18.1717 75.2899C16.9458 76.3824 16.9875 77.3057 18.1278 78.4221C23.2594 83.4458 28.3573 88.5036 33.4704 93.546C43.2859 103.226 53.1097 112.897 62.9148 122.588C64.7256 124.378 64.6819 124.401 66.4682 122.608C80.8063 108.215 95.145 93.8237 109.492 79.4407C112.528 76.3979 112.515 76.4469 109.325 73.5221C108.446 72.716 107.839 72.7679 107.08 73.5645C105.757 74.9519 104.411 76.3182 103.059 77.677C90.7929 90.0009 78.5154 102.314 66.2673 114.656C65.1636 115.768 64.4195 115.911 63.1918 114.685C54.1983 105.704 45.1264 96.8001 35.9147 87.6728ZM17.447 69.4107C16.6266 68.7643 16.0851 67.767 14.5971 67.2567C14.0347 67.9396 13.4894 68.8354 12.7278 69.476C11.3116 70.667 11.105 71.5352 12.6177 72.9703C15.2916 75.5071 15.1902 75.538 17.7839 72.814C19.0455 71.489 19.0868 70.5991 17.447 69.4107ZM117.728 70.9581C116.695 69.3596 115.185 68.2514 113.854 66.8932C113.307 67.4146 112.907 67.7654 112.541 68.1477C109.26 71.5737 109.163 70.3412 112.552 73.8187C112.918 74.1947 113.345 74.512 113.76 74.8699C114.033 74.7264 114.282 74.6607 114.438 74.5033C115.525 73.4054 116.593 72.2886 117.728 70.9581Z" fill="#1C4954"/>
</g>
<defs>
<clipPath id="clip0_805_6">
<rect width="127" height="138" fill="white"/>
</clipPath>
</defs>
</svg>
