<svg width="89" height="89" viewBox="0 0 89 89" fill="none" xmlns="http://www.w3.org/2000/svg">
<path d="M63.902 53.4C64.258 50.463 64.525 47.526 64.525 44.5C64.525 41.474 64.258 38.537 63.902 35.6H78.943C79.655 38.448 80.1 41.4295 80.1 44.5C80.1 47.5705 79.655 50.552 78.943 53.4M56.0255 78.142C58.6955 73.2025 60.7425 67.8625 62.1665 62.3H75.294C70.9827 69.7238 64.1428 75.3474 56.0255 78.142ZM54.913 53.4H34.087C33.642 50.463 33.375 47.526 33.375 44.5C33.375 41.474 33.642 38.4925 34.087 35.6H54.913C55.3135 38.4925 55.625 41.474 55.625 44.5C55.625 47.526 55.3135 50.463 54.913 53.4ZM44.5 79.922C40.8065 74.582 37.825 68.6635 36.0005 62.3H52.9995C51.175 68.6635 48.1935 74.582 44.5 79.922ZM26.7 26.7H13.706C17.9729 19.2561 24.8078 13.6236 32.93 10.858C30.26 15.7975 28.2575 21.1375 26.7 26.7ZM13.706 62.3H26.7C28.2575 67.8625 30.26 73.2025 32.93 78.142C24.8249 75.3459 17.9996 69.7213 13.706 62.3ZM10.057 53.4C9.345 50.552 8.9 47.5705 8.9 44.5C8.9 41.4295 9.345 38.448 10.057 35.6H25.098C24.742 38.537 24.475 41.474 24.475 44.5C24.475 47.526 24.742 50.463 25.098 53.4M44.5 9.0335C48.1935 14.3735 51.175 20.3365 52.9995 26.7H36.0005C37.825 20.3365 40.8065 14.3735 44.5 9.0335ZM75.294 26.7H62.1665C60.7737 21.1885 58.7114 15.8682 56.0255 10.858C64.2135 13.6615 71.022 19.313 75.294 26.7ZM44.5 0C19.8915 0 0 20.025 0 44.5C0 56.3021 4.68838 67.6209 13.0337 75.9662C17.166 80.0985 22.0716 83.3763 27.4706 85.6126C32.8696 87.849 38.6562 89 44.5 89C56.3021 89 67.6209 84.3116 75.9662 75.9662C84.3116 67.6209 89 56.3021 89 44.5C89 38.6562 87.849 32.8696 85.6126 27.4706C83.3763 22.0716 80.0985 17.166 75.9662 13.0337C71.834 8.90154 66.9284 5.6237 61.5294 3.38736C56.1304 1.15103 50.3438 0 44.5 0Z" fill="#F5F5F5"/>
</svg>
